<?xml version="1.0" encoding="utf-8"?>
<!-- Generator: Adobe Illustrator 27.0.1, SVG Export Plug-In . SVG Version: 6.00 Build 0)  -->
<svg version="1.1" id="Layer_1" xmlns="http://www.w3.org/2000/svg" xmlns:xlink="http://www.w3.org/1999/xlink" x="0px" y="0px"
	 viewBox="0 0 236 235" style="enable-background:new 0 0 236 235;" xml:space="preserve">
<style type="text/css">
	.st0{clip-path:url(#SVGID_00000056411202577341553850000016113112028117121947_);}
	.st1{fill-rule:evenodd;clip-rule:evenodd;fill:#FFFFFF;}
</style>
<g>
	<defs>
		<rect id="SVGID_1_" x="0.7" width="235" height="235"/>
	</defs>
	<clipPath id="SVGID_00000151527060655737186450000000587922225290608797_">
		<use xlink:href="#SVGID_1_"  style="overflow:visible;"/>
	</clipPath>
	<g style="clip-path:url(#SVGID_00000151527060655737186450000000587922225290608797_);">
		<path class="st1" d="M199.5,94.3c0,0,34.2,4.3,35.5,16.9c1.3,12.6-33.9,21.5-33.9,21.5s30.4,19.6,25.2,30.5
			c-5.1,10.9-41.4,3.6-41.4,3.6s11.1,17.4,13.6,29.7c1.2,6.1-4.1,11.6-10.3,10.4c-6.2-1.2-16.1-4.6-30-13.7c0,0,1.3,21.8-3.5,32.4
			c-0.4,1-1.1,1.9-1.9,2.7c-0.8,0.7-1.8,1.3-2.8,1.7c-1,0.4-2.2,0.5-3.3,0.4c-1.1-0.1-2.2-0.4-3.2-0.9c-4.9-2.6-12.8-9.2-22.3-25.7
			c0,0-6.4,18.8-15.9,27.5c-3.7,3.4-9.7,2.3-12-2.2c-3.2-6.1-7.3-16.9-8.3-32.6c0,0-15.4,15.4-27.6,18.3c-4.8,1.1-9.5-2.1-10.2-7
			c-1.1-6.8-1.1-18.8,6.8-33.1c0,0-19.4,7-32.2,3.7c-5.3-1.4-8.2-7-6.4-12.1c2.5-7.1,7.9-18,19.4-25c0,0-20.4-3.9-30.4-11.2
			c-4.1-3-4.6-8.8-1.2-12.5c4.2-4.5,12.5-10.4,29-14.4c0,0-18.4-10.2-23.3-22.2c-1.9-4.6,0.3-9.9,4.9-11.8
			c6.1-2.6,16.9-5.4,31.8-1.6c0,0-9.5-16.7-10.3-29.1c-0.4-5.9,4.5-10.7,10.4-10.4c7.4,0.4,18.9,3.2,29.3,14.5
			c0,0-0.7-20.7,4.3-31.9c2.2-5.1,8.5-7.1,13.3-4.3c5.1,3,12,10,18.4,25.9c0,0,7.6-18.7,16.7-27.6c4.9-4.8,12.9-3.7,16.2,2.3
			c3,5.4,5.8,15.1,5.6,32c0,0,30.2-26.3,37.6-16.7c0,0,8.6,9.3-6.7,38.4c0,0,33-13.1,40.6,1.3C221.1,62.2,227,71.1,199.5,94.3
			L199.5,94.3z"/>
		<rect x="115.4" y="67" transform="matrix(0.4921 -0.8705 0.8705 0.4921 -40.6752 159.5146)" width="2" height="95.3"/>
		<polygon points="116.1,148.7 115.6,146.8 156.5,137.4 140.9,94.7 142.7,94 159.2,138.8 		"/>
	</g>
</g>
</svg>
