<?xml version="1.0" encoding="utf-8"?>
<!-- Generator: Adobe Illustrator 27.0.1, SVG Export Plug-In . SVG Version: 6.00 Build 0)  -->
<svg version="1.1" id="Layer_1" xmlns="http://www.w3.org/2000/svg" xmlns:xlink="http://www.w3.org/1999/xlink" x="0px" y="0px"
	 viewBox="0 0 162 207" style="enable-background:new 0 0 162 207;" xml:space="preserve">
<path d="M160.5,28.4c-2.3-9.5-8.1-17.6-16.5-22.7C126.8-5,104.1,0.4,93.5,17.7L81.6,37.2l0.4,0.3c4.6,3,7.6,7.7,8.5,13.1
	c0.8,5.4-0.7,10.9-4.2,15L1.3,168.1L1,168.6l62.1,38.1l0.5,0.3l53.1-122.7c2.2-5,6.4-8.8,11.5-10.5c5.2-1.7,10.8-1.1,15.5,1.6
	l0.4,0.2l11.9-19.5C161.2,47.7,162.8,37.9,160.5,28.4z"/>
</svg>
