<?xml version="1.0" encoding="utf-8"?>
<!-- Generator: Adobe Illustrator 27.0.1, SVG Export Plug-In . SVG Version: 6.00 Build 0)  -->
<svg version="1.1" id="Layer_1" xmlns="http://www.w3.org/2000/svg" xmlns:xlink="http://www.w3.org/1999/xlink" x="0px" y="0px"
	 viewBox="0 0 480 205" style="enable-background:new 0 0 480 205;" xml:space="preserve">
<g>
	<path d="M479.1,39h-20h-0.7l-0.2,0.7l-32.8,94.7l-32.8-94.7l-0.2-0.7h-0.7h-20h-1.4l0.5,1.3l0.9-0.3v0l-0.9,0.3l44.2,120.3l-3.3,9
		l0,0c-2.2,6-4.6,10.3-7.2,12.8l0,0l0,0l0.7,0.7l0,0l-0.7-0.7c-2.5,2.6-5.3,4-8.5,4.3c-3.3,0.3-7.1-0.1-11.5-1.2l-0.2,1l0,0l0.2-1
		l-0.9-0.2l-0.3,0.9l-4.7,16.2l1,0.3l0,0l-1-0.3l-0.2,0.8l0.7,0.4c1.1,0.5,2.9,1,5.3,1.5l0,0c0,0,0,0,0,0c0,0,0,0,0,0l0,0
		c2.5,0.5,5.4,0.8,8.5,0.8c5.7,0,10.8-1,15.4-3.1l0,0c4.6-2,8.7-5.2,12.2-9.4l0,0c3.5-4.2,6.4-9.4,8.7-15.7L480,40.3l0.5-1.3H479.1z
		 M427.2,177.2c-2.3,6.1-5,11.1-8.3,15.1l0.8,0.7l-0.1-0.1l-0.7-0.6l0,0c-3.3,4-7.1,7-11.4,8.9l0.4,0.9l0,0l-0.4-0.8l0,0
		c-4.3,1.9-9.1,2.9-14.6,2.9c-3.1,0-5.8-0.3-8.2-0.8l0,0l0,0c-1.8-0.4-3.2-0.7-4.1-1l4.2-14.5c4.2,1,7.9,1.4,11.3,1.1
		c3.7-0.3,7-2,9.8-4.9l0,0c2.9-2.9,5.4-7.4,7.6-13.6v0l3.4-9.4l0.1-0.3l-0.1-0.3L373,41h17.9l32.9,95l0.9-0.3v0l-0.9,0.3l0.2,0.7
		h0.7h1.2h0.7l0.2-0.7l-0.9-0.3l0,0l0.9,0.3l32.9-95h17.9L427.2,177.2z"/>
	<polygon points="103,76.3 102.1,75.9 102.1,75.9 	"/>
	<polygon points="86.2,67.9 85.3,67.5 85.2,67.5 	"/>
	<path d="M335.6,44.5L335.6,44.5C335.6,44.5,335.6,44.5,335.6,44.5C335.6,44.5,335.6,44.5,335.6,44.5L335.6,44.5
		c-4.8-2.9-9.8-4.8-14.9-5.7v0c0,0,0,0,0,0c0,0,0,0,0,0l0,0c-5-0.9-9.5-1.4-13.5-1.4c-6.1,0-12.4,0.8-18.7,2.5l0,0
		c-6.3,1.7-12.2,4.6-17.5,8.8l0,0c-5.4,4.2-9.6,10-12.8,17.4l-0.4,1l1,0.4l17.5,6.2l0.9,0.3l0.4-0.8l-0.9-0.4l0,0l0.9,0.4
		c1.9-4.2,5.3-8.2,10.2-12c4.8-3.7,11.4-5.6,20.1-5.6c8.3,0,14.4,2.1,18.3,6.1l0,0l0.7-0.7l0,0l-0.7,0.7c4,4,6,9.7,6,17.3v0.6
		c0,2.7-0.9,4.4-2.7,5.4v0l0,0c-1.9,1.1-5.1,1.9-9.6,2.5c-4.5,0.5-10.5,1.2-17.8,2.1l0,0c-5.6,0.7-11.2,1.7-16.7,3l0,0c0,0,0,0,0,0
		c0,0,0,0,0,0v0c-5.5,1.2-10.6,3.1-15.3,5.6c-4.7,2.5-8.4,6-11.2,10.5l0,0c-2.8,4.5-4.2,10.3-4.2,17.3c0,8,1.9,14.8,5.6,20.6
		l0.8-0.5l0,0l-0.8,0.5l0,0c3.8,5.6,8.8,9.9,15.2,12.9l0.4-0.8l0,0l-0.4,0.8l0,0c6.3,2.9,13.4,4.4,21.1,4.4c7.1,0,13.1-1.1,18.1-3.2
		c4.9-2.1,8.9-4.7,12-7.8c2.3-2.4,4.2-4.7,5.5-6.9v14v1h1h18.4h1v-1V80.9c0-9.6-1.6-17.4-4.8-23.3C344.6,51.8,340.5,47.5,335.6,44.5
		z M329.5,85.1l0.5,0.8l0,0L329.5,85.1z M350.6,80.9V159h-16.4v-15.2v-1h-1h-0.9h-0.6l-0.3,0.6l0.9,0.4h0l-0.9-0.4
		c-1.2,2.5-3.2,5.2-6.1,8.1c-2.8,2.9-6.6,5.3-11.3,7.4c-4.7,2-10.5,3-17.3,3c-7.5,0-14.2-1.4-20.3-4.2l0,0
		c-6-2.8-10.8-6.9-14.4-12.2l0,0c-3.5-5.3-5.3-11.8-5.3-19.4c0-6.8,1.3-12.1,3.9-16.2l0,0l-0.8-0.5l0,0l0.8,0.5
		c2.6-4.2,6.1-7.4,10.5-9.8c4.4-2.4,9.4-4.2,14.7-5.4l-0.2-1l0,0l0.2,1l0,0c5.5-1.2,11-2.2,16.5-3v0c7.3-0.9,13.2-1.6,17.7-2.1v0
		l0,0l-0.1-1l0,0l0.1,1c4.6-0.5,8.1-1.4,10.4-2.7l0,0c0,0,0,0,0,0c0,0,0,0,0,0l0,0c2.5-1.4,3.7-3.9,3.7-7.1v-0.6
		c0-7.9-2.2-14.2-6.6-18.7l0,0c0,0,0,0,0,0c0,0,0,0,0,0l0,0c-4.4-4.5-11.1-6.7-19.7-6.7c-8.9,0-16.1,2-21.3,6
		c-4.8,3.7-8.3,7.7-10.4,11.9L260.4,66c3-6.7,6.9-11.9,11.8-15.7l-0.6-0.8l0,0l0.6,0.8l0,0c5.2-4,10.8-6.8,16.8-8.4l0,0l-0.2-0.9
		l0-0.1l0.3,1c6.2-1.6,12.2-2.5,18.2-2.5c3.8,0,8.1,0.5,13.1,1.4l0.1-0.3l-0.1,0.3l0,0l0.2-1l0,0l-0.2,1c4.9,0.9,9.7,2.7,14.3,5.4
		l0.5-0.9l0,0.1l-0.5,0.8l0,0c4.6,2.7,8.4,6.8,11.4,12.4C349,64.1,350.6,71.5,350.6,80.9z"/>
	<path d="M330.8,100.1c-0.8,0.4-1.8,0.8-3.1,1.2l0,0c-2.6,0.7-5.5,1.4-8.9,1.9c-3.4,0.5-6.7,1-9.9,1.4l0,0c-3.2,0.4-5.8,0.7-7.7,0.9
		v0c-4.8,0.6-9.4,1.7-13.6,3.1l0,0c-4.3,1.4-7.7,3.5-10.4,6.4l0,0l0.7,0.7l0.2,0.2l-1-0.9c-2.7,2.9-4,6.9-4,11.8
		c0,6.7,2.5,11.9,7.5,15.4l0.3-0.5l-0.3,0.5l0,0l0.5-0.8l0,0l-0.6,0.8c5,3.4,11.3,5,18.8,5c7.4,0,13.7-1.5,18.9-4.4l0,0
		c5.2-2.9,9.1-6.8,11.8-11.5l0,0c2.7-4.7,4-9.6,4-14.8V99.7v-2.8l-1.8,2.1C332.1,99.4,331.6,99.7,330.8,100.1z M328.4,130.4
		L328.4,130.4l0.8,0.5l0,0L328.4,130.4c-2.5,4.4-6.1,7.9-11,10.7l0.5,0.9l0,0l-0.5-0.9l0,0c-4.8,2.8-10.8,4.2-17.9,4.2
		c-7.2,0-13-1.6-17.6-4.7c-4.4-3.1-6.7-7.6-6.7-13.7c0-4.5,1.2-7.9,3.5-10.4l0,0c2.4-2.6,5.6-4.6,9.6-5.9l0,0
		c4.1-1.4,8.5-2.4,13.2-3h0l-0.1-0.7l0-0.3l0.1,1c2-0.3,4.5-0.6,7.7-0.9l0,0l0,0c3.2-0.4,6.6-0.9,9.9-1.4l0,0c3.5-0.6,6.5-1.2,9.2-2
		l0,0l-0.3-0.9l0,0l0.3,0.9c1.4-0.4,2.5-0.8,3.4-1.3c0.1-0.1,0.3-0.2,0.4-0.2v14.9C332.1,121.4,330.9,126,328.4,130.4z"/>
	<path d="M160.4,141.8V0v-1h-1H140h-1v1v160v1h1h93.8h1v-1v-17.2v-1h-1H160.4z M232.8,159H141V1h17.4v141.8v1h1h73.4V159z"/>
	<path d="M85.7,5.9L85.7,5.9C85.7,5.9,85.7,5.9,85.7,5.9C85.7,5.9,85.7,5.9,85.7,5.9L85.7,5.9C77.5,1.3,67.1-1,54.4-1H0.4h-1v1v160
		v1h1h19.4h1v-1v-57.4h34c12.6,0,23-2.3,31.1-6.9l0,0c8.1-4.7,14.2-11,18.1-18.9l0,0c3.9-7.9,5.9-16.6,5.9-26.2
		c0-9.6-2-18.3-5.9-26.1C100,16.7,93.9,10.5,85.7,5.9z M107.8,50.6c0,9.3-1.9,17.7-5.7,25.3l0.9,0.5l-0.9-0.5
		c-3.7,7.5-9.4,13.5-17.3,18c-7.8,4.4-17.8,6.7-30.1,6.7h-34V85.4h33.4c8.7,0,15.8-1.5,21.2-4.6c5.4-3.1,9.3-7.2,11.7-12.5l0,0
		c0,0,0,0,0,0c0,0,0,0,0,0l0,0c2.5-5.3,3.7-11.2,3.7-17.7c0-6.5-1.2-12.4-3.7-17.6l0,0c0,0,0,0,0,0c0,0,0,0,0,0l0,0
		c-2.4-5.3-6.4-9.4-11.8-12.3l0,0c0,0,0,0,0,0c0,0,0,0,0,0l0,0c-5.5-3-12.6-4.5-21.4-4.5H19.8h-1v1v66.2v1v1v15.2v1v1V159H1.4V1
		h53.1C66.9,1,77,3.2,84.7,7.7l0.5-0.9l0,0l-0.5,0.9l0,0c7.9,4.4,13.6,10.3,17.4,17.8C105.9,33,107.8,41.3,107.8,50.6z M20.8,18.2
		h33.1c8.6,0,15.4,1.4,20.5,4.2l0,0c5.1,2.8,8.7,6.6,11,11.4l0.9-0.4l0,0l-0.9,0.4l0,0c2.3,4.9,3.5,10.5,3.5,16.8
		c0,6.3-1.2,11.9-3.5,16.8l0.9,0.4l-0.9-0.4c-2.2,4.8-5.9,8.7-10.9,11.6c-5,2.9-11.7,4.3-20.2,4.3H20.8V18.2z"/>
</g>
</svg>
