<svg width="433" height="165" viewBox="0 0 433 165" fill="none" xmlns="http://www.w3.org/2000/svg">
<path fill-rule="evenodd" clip-rule="evenodd" d="M0.375 162.156V0.15625H98.9375V19.3438H21.75V71.4062H93.9375V90.5938H21.75V142.969H100.188V162.156H0.375ZM20.75 143.969V89.5938H92.9375V72.4062H20.75V18.3438H97.9375V1.15625H1.375V161.156H99.1875V143.969H20.75ZM144.549 160.58L144.543 160.577C138.188 157.586 133.122 153.275 129.371 147.648L129.369 147.645C125.597 141.933 123.734 135.066 123.734 127.094C123.734 120.096 125.112 114.32 127.951 109.842C130.752 105.372 134.5 101.868 139.181 99.3389C143.8 96.8435 148.888 94.9901 154.439 93.7739C159.988 92.5175 165.565 91.5228 171.167 90.7897L171.169 90.7894C178.462 89.8517 184.381 89.1476 188.924 88.6777C193.47 88.1606 196.633 87.3189 198.533 86.2268L198.542 86.2216C200.29 85.2411 201.234 83.5417 201.234 80.8438V80.2188C201.234 72.6954 199.18 66.9874 195.195 62.9528L195.19 62.9483C191.28 58.9397 185.257 56.8438 176.922 56.8438C168.255 56.8438 161.597 58.7419 156.829 62.417C151.919 66.2024 148.525 70.1985 146.579 74.3899L146.195 75.2173L126.834 68.3027L127.253 67.3248C130.431 59.9097 134.691 54.085 140.056 49.8998C145.418 45.7054 151.269 42.7776 157.604 41.1269C163.931 39.4398 170.163 38.5938 176.297 38.5938C180.227 38.5938 184.716 39.0713 189.757 40.0161C194.935 40.9244 199.918 42.8189 204.701 45.6888C209.618 48.6073 213.665 52.9947 216.86 58.799C220.096 64.6772 221.672 72.4676 221.672 82.0938V162.156H201.234V147.123C199.919 149.318 198.086 151.599 195.76 153.966C192.732 157.049 188.734 159.641 183.801 161.762C178.799 163.914 172.745 164.969 165.672 164.969C157.939 164.969 150.893 163.512 144.549 160.58ZM201.234 145.035C201.255 144.992 201.276 144.949 201.297 144.906H202.234V161.156H220.672V82.0938C220.672 72.5625 219.109 64.9583 215.984 59.2813C212.859 53.6042 208.927 49.3594 204.188 46.5469C199.5 43.7344 194.63 41.8854 189.578 41C184.578 40.0625 180.151 39.5938 176.297 39.5938C170.255 39.5938 164.109 40.4271 157.859 42.0938C151.661 43.7083 145.932 46.5729 140.672 50.6875C135.684 54.5779 131.652 59.949 128.575 66.8007C128.439 67.1038 128.304 67.4099 128.172 67.7188L145.672 73.9688C147.703 69.5938 151.219 65.4792 156.219 61.625C161.219 57.7708 168.12 55.8438 176.922 55.8438C185.411 55.8438 191.74 57.9792 195.906 62.25C200.125 66.5208 202.234 72.5104 202.234 80.2188V80.8438C202.234 83.8125 201.167 85.8958 199.031 87.0938C196.948 88.2917 193.615 89.151 189.031 89.6719C184.5 90.1406 178.589 90.8438 171.297 91.7812C165.724 92.5104 160.177 93.5 154.656 94.75C149.188 95.9479 144.188 97.7708 139.656 100.219C135.125 102.667 131.505 106.052 128.797 110.375C126.089 114.646 124.734 120.219 124.734 127.094C124.734 134.906 126.557 141.573 130.203 147.094C133.849 152.562 138.771 156.755 144.969 159.672C151.167 162.536 158.068 163.969 165.672 163.969C172.651 163.969 178.562 162.927 183.406 160.844C188.25 158.76 192.13 156.234 195.047 153.266C197.915 150.346 199.978 147.602 201.234 145.035ZM186.425 142.242L186.429 142.239C191.342 139.454 195.004 135.88 197.457 131.525L197.461 131.517C199.982 127.131 201.234 122.536 201.234 117.719V102.861C201.096 102.937 200.953 103.012 200.807 103.086C199.877 103.551 198.723 103.981 197.36 104.381L197.348 104.385C194.701 105.126 191.643 105.784 188.18 106.361L188.168 106.363C184.775 106.885 181.459 107.355 178.222 107.773L178.208 107.775C175.033 108.139 172.461 108.451 170.49 108.71L170.489 108.71C165.756 109.328 161.341 110.33 157.242 111.713L157.234 111.716C153.257 113.025 150.077 114.998 147.657 117.616C145.37 120.093 144.172 123.524 144.172 128.031C144.172 134.15 146.412 138.665 150.845 141.737C155.431 144.826 161.289 146.406 168.484 146.406C175.647 146.406 181.611 144.999 186.425 142.242ZM150.281 142.562C145.542 139.281 143.172 134.438 143.172 128.031C143.172 123.344 144.422 119.646 146.922 116.938C149.474 114.177 152.807 112.12 156.922 110.766C161.089 109.359 165.568 108.344 170.359 107.719C172.339 107.458 174.917 107.146 178.094 106.781C181.323 106.365 184.63 105.896 188.016 105.375C191.453 104.802 194.474 104.151 197.078 103.422C198.909 102.883 200.294 102.308 201.234 101.695C201.658 101.419 201.992 101.135 202.234 100.844V117.719C202.234 122.719 200.932 127.484 198.328 132.016C195.776 136.547 191.974 140.245 186.922 143.109C181.922 145.974 175.776 147.406 168.484 147.406C161.141 147.406 155.073 145.792 150.281 142.562ZM253.324 162.156V40.1563H273.137V57.2304C275.505 51.8518 279.377 47.436 284.719 43.9879C290.619 40.1799 297.268 38.2812 304.637 38.2812C306.003 38.2812 307.704 38.3075 309.74 38.3597C311.778 38.4119 313.344 38.4908 314.424 38.5987L315.324 38.6888V59.6245L314.082 59.3139C313.519 59.1732 312.144 58.9456 309.889 58.631L309.876 58.6292L309.863 58.627C307.735 58.2724 305.473 58.0938 303.074 58.0938C297.385 58.0938 292.342 59.2863 287.92 61.6477L287.917 61.6497C283.539 63.9644 280.078 67.1763 277.517 71.2938C275.021 75.3395 273.762 79.9711 273.762 85.2188V162.156H253.324ZM276.668 70.7656C279.324 66.4948 282.918 63.1615 287.449 60.7656C292.033 58.3177 297.241 57.0938 303.074 57.0938C305.522 57.0938 307.84 57.276 310.027 57.6406C311.454 57.8397 312.553 58.007 313.324 58.1427C313.764 58.22 314.097 58.287 314.324 58.3438V39.5938C313.283 39.4896 311.746 39.4115 309.715 39.3594C307.684 39.3073 305.991 39.2812 304.637 39.2812C297.449 39.2812 290.991 41.1302 285.262 44.8281C279.533 48.526 275.574 53.3438 273.387 59.2813H272.137V41.1563H254.324V161.156H272.762V85.2188C272.762 79.8021 274.064 74.9844 276.668 70.7656ZM355.617 162.156H335.18V40.1563H354.992V58.7592C357.885 52.8284 362.167 48.0317 367.821 44.3812C373.758 40.4958 381.36 38.5938 390.555 38.5938C398.817 38.5938 406.096 40.2893 412.359 43.7146C418.647 47.1011 423.525 52.2582 426.993 59.141C430.471 65.9896 432.18 74.5951 432.18 84.9062V162.156H411.742V86.1562C411.742 76.9009 409.342 69.8298 404.666 64.8063L404.663 64.8027C399.991 59.7332 393.56 57.1562 385.242 57.1562C379.507 57.1562 374.416 58.3982 369.945 60.8595C365.539 63.3134 362.052 66.8944 359.481 71.6331C356.921 76.3501 355.617 82.1148 355.617 88.9688V162.156ZM369.461 59.9844C374.096 57.4323 379.357 56.1562 385.242 56.1562C393.784 56.1562 400.503 58.8125 405.398 64.125C410.294 69.3854 412.742 76.7292 412.742 86.1562V161.156H431.18V84.9062C431.18 74.6979 429.487 66.2604 426.102 59.5937C422.716 52.875 417.977 47.875 411.883 44.5938C405.789 41.2604 398.68 39.5938 390.555 39.5938C381.492 39.5938 374.096 41.4688 368.367 45.2188C362.638 48.9167 358.367 53.8125 355.555 59.9063H353.992V41.1563H336.18V161.156H354.617V88.9688C354.617 81.9896 355.945 76.0521 358.602 71.1562C361.258 66.2604 364.878 62.5365 369.461 59.9844Z" fill="black"/>
</svg>
