<svg width="88" height="67" viewBox="0 0 88 67" fill="none" xmlns="http://www.w3.org/2000/svg">
<path d="M6 66.0176H20V32.0176L0 17.0176V60.0176C0 63.3376 2.69 66.0176 6 66.0176Z" fill="white"/>
<path d="M68 66.0176H82C85.32 66.0176 88 63.3276 88 60.0176V17.0176L68 32.0176" fill="white"/>
<path d="M68 6.01702V32.017L88 17.017V9.01702C88 1.59702 79.53 -2.63298 73.6 1.81702" fill="white"/>
<path d="M20 32.0176V6.01758L44 24.0176L68 6.01758V32.0176L44 50.0176" fill="white"/>
<path d="M0 9.01702V17.017L20 32.017V6.01702L14.4 1.81702C8.46 -2.63298 0 1.59702 0 9.01702Z" fill="white"/>
</svg>
