<svg width="132" height="61" viewBox="0 0 132 61" fill="none" xmlns="http://www.w3.org/2000/svg">
<rect width="132" height="61" fill="black"/>
<path d="M29.3116 43.9219L30.8012 41.3364L21.4183 35.9087L19.9287 38.4942C20.9731 39.0934 21.3327 40.4289 20.7163 41.4563L19.9972 42.7062C19.3979 43.7507 18.0624 44.1102 17.035 43.4938L15.5454 46.0792L24.9283 51.507L26.418 48.9215C25.3735 48.3222 25.0139 46.9867 25.6303 45.9594L26.3495 44.7095C26.9487 43.665 28.2843 43.3055 29.3116 43.9219Z" fill="white"/>
<path d="M31.3651 18.0849C32.8547 15.5166 31.9644 12.2121 29.3961 10.7224C26.8278 9.2328 23.5232 10.1231 22.0336 12.6915L20.3556 15.6022C21.8281 16.4584 22.2048 18.4103 21.1603 19.7458L12 30.0704L21.3316 35.4639L25.6977 22.3655C26.3312 20.7902 28.2147 20.1396 29.6872 20.9786L31.3651 18.0678V18.0849Z" fill="white"/>
<path d="M50.5655 38.4086C49.414 38.4086 48.3838 38.2058 47.4747 37.8001C46.5656 37.3944 45.846 36.7858 45.3157 35.9744C44.8005 35.148 44.543 34.1187 44.543 32.8865V32.4132H46.4293V32.8865C46.4293 34.1938 46.8156 35.1705 47.5883 35.8166C48.361 36.4477 49.3534 36.7633 50.5655 36.7633C51.8079 36.7633 52.7549 36.4853 53.4064 35.9293C54.0579 35.3733 54.3836 34.6746 54.3836 33.8332C54.3836 33.2471 54.2321 32.7813 53.9291 32.4357C53.6412 32.0901 53.2321 31.8121 52.7018 31.6018C52.1715 31.3764 51.5504 31.181 50.8383 31.0157L49.6565 30.7227C48.7322 30.4823 47.9141 30.1893 47.202 29.8437C46.4899 29.4981 45.9293 29.0473 45.5202 28.4913C45.1263 27.9203 44.9293 27.1916 44.9293 26.305C44.9293 25.4185 45.149 24.6521 45.5884 24.006C46.0429 23.3599 46.6717 22.864 47.4747 22.5184C48.2929 22.1728 49.2322 22 50.2928 22C51.3685 22 52.3306 22.1878 53.1791 22.5635C54.0427 22.9241 54.7169 23.4651 55.2018 24.1863C55.7018 24.8925 55.9517 25.7866 55.9517 26.8685V27.8152H54.0654V26.8685C54.0654 26.1022 53.8988 25.4861 53.5655 25.0203C53.2473 24.5545 52.8003 24.2089 52.2246 23.9835C51.664 23.7581 51.0201 23.6454 50.2928 23.6454C49.2474 23.6454 48.4065 23.8783 47.7702 24.3441C47.1338 24.7949 46.8156 25.441 46.8156 26.2825C46.8156 26.8384 46.952 27.2892 47.2247 27.6348C47.4974 27.9804 47.8838 28.2659 48.3838 28.4913C48.8838 28.7017 49.4822 28.8895 50.1792 29.0548L51.361 29.3478C52.2852 29.5432 53.1109 29.8136 53.8382 30.1592C54.5806 30.4898 55.1715 30.9481 55.6109 31.5341C56.0502 32.1051 56.2699 32.8565 56.2699 33.7881C56.2699 34.7197 56.0351 35.5311 55.5654 36.2223C55.0957 36.9135 54.4291 37.4545 53.5655 37.8452C52.717 38.2208 51.717 38.4086 50.5655 38.4086Z" fill="white"/>
<path d="M61.4807 38.0931V22.3156H71.2759V24.0285H63.3898V29.3027H70.6396V31.0157H63.3898V36.3801H71.3895V38.0931H61.4807Z" fill="white"/>
<path d="M76.5593 38.0931V22.3156H80.2638L85.8091 36.8985H86.1045V22.3156H87.9908V38.0931H84.2864L78.7638 23.4876H78.4456V38.0931H76.5593Z" fill="white"/>
<path d="M93.9239 38.0931V22.3156H103.719V24.0285H95.833V29.3027H103.083V31.0157H95.833V36.3801H103.833V38.0931H93.9239Z" fill="white"/>
<path d="M112.912 38.0931V24.0285H107.798V22.3156H119.934V24.0285H114.821V38.0931H112.912Z" fill="white"/>
</svg>
