<svg width="241" height="124" viewBox="0 0 241 124" fill="none" xmlns="http://www.w3.org/2000/svg">
<path opacity="0.6" d="M4.17369 73.0547L0.314453 94.9777L233.569 75.2497L233.956 73.0547H4.17369Z" fill="white"/>
<path opacity="0.6" d="M4.17338 73.0547L1.47461 88.4017L233.569 75.2497L233.955 73.0547H4.17338Z" fill="white"/>
<path opacity="0.6" d="M4.17327 73.0547L2.62598 81.8257L233.569 75.2497L233.955 73.0547H4.17327Z" fill="white"/>
<path opacity="0.6" d="M4.17383 73.0547L3.40918 77.4357L233.569 75.2497L233.956 73.0547H4.17383Z" fill="white"/>
<path opacity="0.6" d="M4.17393 73.0547L3.78711 75.2497H233.569L233.956 73.0547H4.17393Z" fill="white"/>
<path d="M181.95 36.5231C180.929 36.5617 179.95 36.943 179.172 37.6055C178.393 38.268 177.86 39.1733 177.659 40.1755L176.364 47.4801C176.262 47.9266 176.263 48.3905 176.369 48.8362C176.474 49.2818 176.68 49.6974 176.971 50.051C177.262 50.4046 177.63 50.6868 178.048 50.8758C178.465 51.0648 178.92 51.1557 179.377 51.1415H190.334C191.359 51.1044 192.34 50.7228 193.121 50.0583C193.901 49.3938 194.435 48.4854 194.634 47.4801L195.921 40.1755C196.025 39.73 196.025 39.2666 195.921 38.8212C195.816 38.3759 195.611 37.9604 195.321 37.6072C195.03 37.254 194.662 36.9724 194.245 36.7844C193.828 36.5964 193.373 36.507 192.916 36.5231H181.95ZM189.696 54.7938H178.73C177.816 54.8227 176.907 54.6414 176.074 54.2637C175.241 53.8861 174.506 53.3222 173.925 52.6156C173.345 51.909 172.934 51.0785 172.725 50.1881C172.516 49.2977 172.515 48.3713 172.72 47.4801L174.007 40.1755C174.409 38.166 175.478 36.3513 177.041 35.0255C178.603 33.6997 180.568 32.9404 182.616 32.8708H193.573C194.487 32.839 195.397 33.018 196.231 33.3939C197.065 33.7699 197.802 34.3328 198.383 35.0389C198.965 35.7451 199.377 36.5757 199.586 37.4664C199.796 38.3571 199.797 39.284 199.591 40.1755L198.305 47.4801C197.904 49.4876 196.838 51.3012 195.279 52.6283C193.72 53.9553 191.759 54.7182 189.714 54.7938" fill="white"/>
<path d="M32.9427 54.7948H14.672C13.7579 54.8238 12.8494 54.6424 12.0165 54.2648C11.1835 53.8871 10.4484 53.3233 9.86783 52.6166C9.28723 51.91 8.87665 51.0795 8.66772 50.1891C8.45879 49.2988 8.45711 48.3723 8.66279 47.4812L11.2356 32.8808C11.6356 30.8801 12.6967 29.072 14.2483 27.7472C15.8 26.4223 17.752 25.6577 19.7907 25.5762H38.0974L37.4496 29.2285H19.188C18.165 29.2651 17.1841 29.6455 16.4039 30.3082C15.6237 30.9709 15.0896 31.8772 14.8879 32.8808L12.3061 47.4812C12.2048 47.9254 12.2061 48.3868 12.3099 48.8304C12.4138 49.274 12.6174 49.6881 12.9054 50.0411C13.1934 50.3942 13.5581 50.6769 13.9718 50.8677C14.3855 51.0586 14.8373 51.1525 15.2928 51.1425H33.5904L32.9427 54.7948Z" fill="white"/>
<path d="M146.498 51.1411H161.116C162.139 51.1029 163.119 50.722 163.899 50.0595C164.679 49.3971 165.213 48.4916 165.416 47.4887L166.703 40.1751C166.804 39.7321 166.803 39.2718 166.7 38.8293C166.596 38.3867 166.393 37.9736 166.106 37.6214C165.819 37.2692 165.455 36.9872 165.043 36.7968C164.63 36.6064 164.179 36.5126 163.725 36.5227H152.732C151.709 36.5593 150.728 36.9397 149.948 37.6024C149.168 38.2651 148.634 39.1714 148.432 40.1751L146.498 51.1411ZM142.639 73.0551H138.986L144.78 40.1751C145.184 38.17 146.251 36.3593 147.81 35.0343C149.368 33.7093 151.327 32.9471 153.371 32.8704H164.337C165.251 32.8404 166.159 33.0206 166.992 33.3972C167.826 33.7737 168.561 34.3365 169.143 35.0422C169.724 35.7479 170.136 36.5777 170.346 37.4676C170.556 38.3575 170.559 39.2838 170.355 40.1751L169.06 47.4887C168.657 49.4945 167.59 51.3061 166.031 52.6314C164.473 53.9566 162.513 54.7182 160.469 54.7934H145.859L142.639 73.0551Z" fill="white"/>
<path d="M72.6859 36.5324L70.7608 47.4894C70.6569 47.9348 70.657 48.3982 70.7611 48.8436C70.8652 49.289 71.0705 49.7044 71.3611 50.0576C71.6517 50.4109 72.0197 50.6924 72.4367 50.8804C72.8537 51.0684 73.3083 51.1578 73.7654 51.1417H84.7224C85.7517 51.1131 86.7409 50.7363 87.5285 50.073C88.316 49.4096 88.8554 48.4988 89.0585 47.4894L90.3539 40.1847C90.4561 39.7387 90.4545 39.2751 90.3492 38.8298C90.2439 38.3845 90.0377 37.9694 89.7464 37.6164C89.4552 37.2635 89.0868 36.9822 88.6696 36.7942C88.2524 36.6062 87.7976 36.5167 87.3402 36.5324H72.6859ZM84.0837 54.794H73.1267C72.2123 54.8258 71.3028 54.6468 70.4686 54.2709C69.6345 53.8949 68.898 53.3321 68.3162 52.6259C67.7344 51.9197 67.3228 51.0891 67.1134 50.1984C66.904 49.3078 66.9023 48.3808 67.1085 47.4894L72.8659 14.6094H76.5542L73.3336 32.88H87.952C88.8656 32.8496 89.7741 33.0297 90.6071 33.4063C91.4401 33.7828 92.1755 34.3459 92.7562 35.0519C93.337 35.7579 93.7478 36.5879 93.9567 37.4779C94.1656 38.3679 94.1672 39.294 93.9612 40.1847L92.6568 47.4894C92.2554 49.4959 91.189 51.3084 89.63 52.6339C88.0711 53.9594 86.1107 54.7205 84.0657 54.794" fill="white"/>
<path d="M204.306 54.7941H200.653L203.226 40.1758C203.629 38.1685 204.698 36.3558 206.258 35.0304C207.818 33.705 209.78 32.9443 211.826 32.8711H219.131L218.483 36.5234H211.179C210.161 36.5675 209.187 36.9511 208.412 37.613C207.638 38.275 207.107 39.1772 206.905 40.1758L204.306 54.7941Z" fill="white"/>
<path d="M127.921 54.7949H124.269L126.841 40.1855C127.244 38.1797 128.311 36.3681 129.87 35.0429C131.428 33.7176 133.388 32.956 135.432 32.8809H142.413L141.766 36.5332H134.794C133.771 36.5698 132.79 36.9501 132.01 37.6128C131.229 38.2755 130.695 39.1819 130.494 40.1855L127.921 54.7949Z" fill="white"/>
<path d="M52.9138 63.9155H42.5596L43.1803 60.2722H53.5615C54.6789 60.2297 55.7494 59.8127 56.6011 59.0883C57.4529 58.3638 58.0362 57.374 58.2574 56.278L62.3775 32.8887H66.0299L61.9097 56.278C61.4854 58.3769 60.3676 60.2722 58.7359 61.6591C57.1043 63.0459 55.0537 63.8439 52.9138 63.9245" fill="white"/>
<path d="M61.837 54.7949H43.8992C42.9848 54.8267 42.0753 54.6477 41.2411 54.2717C40.4069 53.8957 39.6704 53.3329 39.0886 52.6267C38.5068 51.9205 38.0953 51.09 37.8859 50.1993C37.6764 49.3086 37.6748 48.3816 37.8809 47.4902L40.4808 32.8809H44.0791L41.5333 47.4902C41.431 47.9362 41.4326 48.3998 41.5379 48.8451C41.6432 49.2904 41.8495 49.7055 42.1407 50.0585C42.4319 50.4114 42.8004 50.6927 43.2176 50.8807C43.6348 51.0686 44.0896 51.1582 44.5469 51.1425H62.4847L61.837 54.7949Z" fill="white"/>
<path d="M100.951 42.0114H119.213L119.537 40.2122C119.641 39.7668 119.64 39.3034 119.536 38.858C119.432 38.4126 119.227 37.9972 118.936 37.644C118.646 37.2907 118.278 37.0092 117.861 36.8212C117.444 36.6332 116.989 36.5438 116.532 36.5599H105.566C104.543 36.598 103.563 36.979 102.784 37.6414C102.004 38.3038 101.469 39.2093 101.266 40.2122L100.951 42.0114ZM109.65 54.7946H102.345C101.431 54.8264 100.522 54.6474 99.6874 54.2714C98.8532 53.8954 98.1167 53.3326 97.5349 52.6264C96.9531 51.9202 96.5416 51.0897 96.3321 50.199C96.1227 49.3083 96.121 48.3813 96.3272 47.4899L97.6136 40.1852C98.017 38.178 99.0851 36.3653 100.646 35.0399C102.206 33.7145 104.168 32.9537 106.214 32.8806H117.171C118.085 32.8487 118.995 33.0277 119.829 33.4037C120.663 33.7797 121.399 34.3425 121.981 35.0487C122.563 35.7549 122.975 36.5855 123.184 37.4761C123.393 38.3668 123.395 39.2938 123.189 40.1852L122.541 43.8376C122.438 44.3344 122.171 44.7821 121.783 45.1085C121.394 45.4349 120.907 45.621 120.4 45.6367H100.303L99.9796 47.4359C99.8773 47.8819 99.8789 48.3455 99.9842 48.7908C100.09 49.2361 100.296 49.6512 100.587 50.0042C100.878 50.3571 101.247 50.6384 101.664 50.8264C102.081 51.0144 102.536 51.104 102.993 51.0882H110.298L109.65 54.7946Z" fill="white"/>
<path d="M240.405 36.5242H222.135L222.782 32.8809H240.999L240.405 36.5242Z" fill="white"/>
<path d="M228.046 54.7948H224.394L229.548 25.5762H233.201L228.046 54.7948Z" fill="white"/>
<path d="M161.098 17.2541C161.057 17.2371 161.02 17.2101 160.992 17.1756C160.964 17.141 160.944 17.1 160.936 17.0562C160.916 17.0123 160.906 16.9648 160.906 16.9168C160.906 16.8687 160.916 16.8212 160.936 16.7773L161.431 15.9587H166.459C165.779 16.9806 164.85 17.8132 163.761 18.3786L161.098 17.2541ZM160.81 11.1369L160.873 10.7861C160.893 10.6874 160.945 10.5984 161.022 10.5331C161.099 10.4679 161.195 10.4303 161.296 10.4262H164.138L163.949 11.4968H161.107C161.062 11.4978 161.017 11.4886 160.976 11.4699C160.936 11.4512 160.9 11.4235 160.871 11.3889C160.842 11.3542 160.822 11.3136 160.811 11.2699C160.801 11.2263 160.8 11.1808 160.81 11.1369M168.789 10.4262C168.834 10.4252 168.879 10.4344 168.92 10.4531C168.96 10.4718 168.996 10.4995 169.025 10.5341C169.054 10.5688 169.074 10.6094 169.085 10.6531C169.095 10.6967 169.096 10.7422 169.086 10.7861L169.023 11.1369C169.003 11.2356 168.951 11.3246 168.874 11.3899C168.797 11.4551 168.701 11.4927 168.6 11.4968H165.668L165.857 10.4262H168.789ZM162.42 6.08122C162.375 6.08225 162.331 6.07307 162.29 6.05439C162.249 6.0357 162.213 6.008 162.184 5.97336C162.156 5.93871 162.135 5.89804 162.125 5.85439C162.114 5.81075 162.114 5.76527 162.123 5.72139L162.195 5.30758H165.038L164.903 6.08122H162.42ZM162.6 3.04961C162.618 2.95171 162.669 2.86285 162.744 2.79751C162.819 2.73217 162.914 2.69419 163.014 2.68977H165.524L165.362 3.58936H162.519L162.6 3.04961ZM169.86 2.68977C169.904 2.69011 169.947 2.70028 169.987 2.71955C170.027 2.73882 170.062 2.76671 170.089 2.80118C170.117 2.83565 170.136 2.87583 170.147 2.91881C170.157 2.96179 170.157 3.00647 170.148 3.04961L170.022 3.59836H167.053L167.215 2.69877L169.86 2.68977ZM169.68 5.72139C169.66 5.82003 169.607 5.90909 169.531 5.97433C169.454 6.03956 169.358 6.0772 169.257 6.08122H166.612L166.756 5.30758H169.752L169.68 5.72139ZM168.294 15.9587H170.813L171.119 14.2495H162.501L163.122 13.206H168.303C168.883 13.1851 169.439 12.9696 169.881 12.5943C170.324 12.2189 170.627 11.7055 170.741 11.1369L170.795 10.7861C170.854 10.5361 170.856 10.2759 170.799 10.0254C170.741 9.7749 170.628 9.54081 170.466 9.34106C170.305 9.14131 170.1 8.98121 169.867 8.87304C169.634 8.76487 169.379 8.7115 169.122 8.71702H166.153L166.315 7.81743H168.96C169.54 7.79572 170.096 7.57862 170.536 7.20138C170.977 6.82413 171.278 6.30891 171.389 5.73938L171.47 5.32557H172.72L173.026 3.61635H171.794L171.893 3.0676C171.951 2.81475 171.95 2.55191 171.89 2.29943C171.831 2.04694 171.714 1.81159 171.548 1.61156C171.383 1.41154 171.174 1.25221 170.938 1.14591C170.701 1.03961 170.443 0.989188 170.184 0.998544H167.548L167.692 0H165.974L165.803 0.971557H163.32C162.74 0.992416 162.184 1.2079 161.742 1.58326C161.3 1.95863 160.997 2.472 160.882 3.04061L160.792 3.58936H159.523L159.227 5.30758H160.486L160.414 5.72139C160.355 5.97409 160.354 6.23711 160.413 6.49006C160.471 6.743 160.587 6.97909 160.751 7.18002C160.916 7.38096 161.124 7.54135 161.361 7.64876C161.597 7.75618 161.855 7.80773 162.114 7.79944H164.624L164.462 8.69903H161.611C161.031 8.71989 160.475 8.93537 160.033 9.31074C159.59 9.6861 159.287 10.1995 159.173 10.7681L159.11 11.1189C159.052 11.3718 159.052 11.6346 159.112 11.8871C159.172 12.1396 159.289 12.3749 159.454 12.575C159.619 12.775 159.828 12.9343 160.065 13.0406C160.302 13.1469 160.56 13.1973 160.819 13.188H161.278L160.657 14.2315H157.661L157.364 15.9407H159.631L159.541 16.0937C159.236 16.5743 159.132 17.1563 159.254 17.7129C159.305 17.9707 159.417 18.2124 159.582 18.4176C159.746 18.6227 159.958 18.7852 160.198 18.8914L161.521 19.4311C159.938 19.978 158.274 20.2488 156.6 20.2318L156.294 21.95C158.833 21.9671 161.343 21.4073 163.635 20.3127L167.458 21.887L168.357 20.2947L165.596 19.1523C166.765 18.3644 167.698 17.2728 168.294 15.9947" fill="white"/>
<path d="M174.781 6.29713H179.18C178.556 8.98634 177.456 11.5424 175.932 13.8447C175.131 11.4105 174.742 8.85953 174.781 6.29713M176.634 15.5719C178.681 12.8072 180.136 9.64979 180.907 6.29713H182.4L182.706 4.58791H175.708C176.417 3.19468 177.054 1.76539 177.615 0.30586L175.986 0C174.766 3.15854 173.168 6.15795 171.228 8.93292L172.559 9.83251C172.757 9.57163 172.946 9.30175 173.135 9.03188C173.32 11.295 173.822 13.5209 174.628 15.6439C173.064 17.538 171.179 19.1426 169.06 20.3847L169.743 21.815C171.834 20.5914 173.719 19.0461 175.33 17.2361C176.15 18.9108 177.251 20.4322 178.586 21.7341L179.918 20.3937C178.526 19.019 177.414 17.3876 176.643 15.5899" fill="white"/>
<path d="M191.747 16.7151C191.727 16.8128 191.674 16.9007 191.597 16.9644C191.52 17.0281 191.424 17.0639 191.324 17.0659H189.255C189.211 17.0684 189.166 17.0605 189.125 17.0429C189.084 17.0253 189.048 16.9984 189.019 16.9644C188.991 16.9304 188.97 16.8902 188.96 16.8469C188.949 16.8037 188.949 16.7585 188.958 16.7151L190.308 9.09553H192.737C192.781 9.09305 192.826 9.10092 192.866 9.11853C192.907 9.13613 192.944 9.163 192.972 9.19701C193.001 9.23102 193.022 9.27124 193.032 9.31451C193.043 9.35778 193.043 9.40292 193.033 9.44637L191.747 16.7151ZM194.743 9.44637C194.801 9.19352 194.8 8.93069 194.74 8.6782C194.681 8.42572 194.564 8.19036 194.398 7.99034C194.233 7.79031 194.024 7.63098 193.787 7.52468C193.551 7.41839 193.293 7.36796 193.033 7.37732H190.713C191.48 5.88789 192.083 4.31937 192.512 2.69945H195.921L196.227 0.990234H188.131L187.852 2.69945H190.811C189.704 6.4355 187.724 9.8549 185.036 12.6759L186.098 13.8274C186.865 13.0987 187.564 12.3007 188.185 11.4435L187.285 16.751C187.225 17.0033 187.225 17.266 187.283 17.5186C187.342 17.7711 187.458 18.0068 187.622 18.2071C187.787 18.4074 187.996 18.5669 188.232 18.6733C188.468 18.7796 188.726 18.8299 188.985 18.8201H191.063C191.643 18.7992 192.199 18.5838 192.641 18.2084C193.083 17.833 193.386 17.3197 193.501 16.751L194.743 9.44637Z" fill="white"/>
<path d="M197.568 11.6227L197.919 9.6436H201.517L201.103 11.9825H197.91C197.865 11.9836 197.82 11.9744 197.779 11.9557C197.738 11.937 197.702 11.9093 197.674 11.8747C197.645 11.84 197.625 11.7993 197.614 11.7557C197.604 11.7121 197.603 11.6666 197.613 11.6227M199.718 1.72721H202.947L202.524 4.13811H198.926L199.295 2.07805C199.313 1.98108 199.365 1.89337 199.44 1.82953C199.515 1.76569 199.61 1.72958 199.709 1.72721M201.85 7.94337H198.251L198.62 5.84733H202.219L201.85 7.94337ZM206.465 11.9915H202.866L203.271 9.65259H207.4L207.697 7.94337H203.577L203.946 5.84733H208.066L208.372 4.13811H204.207L204.629 1.72721H209.604L209.901 0H200.006C199.426 0.0224296 198.871 0.238473 198.429 0.613573C197.987 0.988674 197.684 1.50116 197.568 2.06906L195.885 11.6227C195.828 11.876 195.829 12.1392 195.888 12.392C195.948 12.6449 196.065 12.8807 196.23 13.0814C196.395 13.282 196.604 13.4422 196.84 13.5495C197.077 13.6569 197.335 13.7086 197.595 13.7007H206.159C206.203 13.6983 206.248 13.7061 206.289 13.7237C206.33 13.7413 206.366 13.7682 206.395 13.8022C206.423 13.8362 206.444 13.8764 206.454 13.9197C206.465 13.963 206.465 14.0081 206.456 14.0516L205.43 19.8449C205.41 19.9436 205.357 20.0326 205.281 20.0979C205.204 20.1631 205.108 20.2008 205.007 20.2048H200.581L200.284 21.914H204.71C205.29 21.8931 205.846 21.6777 206.288 21.3023C206.731 20.9269 207.033 20.4136 207.148 19.8449L208.165 14.0516C208.223 13.7987 208.222 13.5359 208.162 13.2834C208.103 13.0309 207.986 12.7956 207.82 12.5955C207.655 12.3955 207.446 12.2362 207.21 12.1299C206.973 12.0236 206.715 11.9732 206.456 11.9825" fill="white"/>
<path d="M192.512 21.0508L193.843 21.9504C194.947 20.1877 195.8 18.2804 196.38 16.283L194.707 16.1211C194.189 17.8515 193.451 19.5083 192.512 21.0508Z" fill="white"/>
<path d="M197.099 16.48L197.027 21.041L198.773 20.7711L198.845 16.2012L197.099 16.48Z" fill="white"/>
<path d="M199.825 15.9682L200.266 19.7645L201.993 19.2877L201.552 15.4824L199.825 15.9682Z" fill="white"/>
<path d="M202.551 15.1308L203.207 18.4503L204.917 17.8566L204.269 14.5371L202.551 15.1308Z" fill="white"/>
<path d="M216.4 0.901818L215.016 2.16016L217.889 5.32264L219.274 4.06431L216.4 0.901818Z" fill="white"/>
<path d="M217.214 9.56269L214.299 6.66602L212.959 7.97942L215.874 10.8671L217.214 9.56269Z" fill="white"/>
<path d="M211.124 20.4652L212.41 21.3648C214.269 19.0195 215.867 16.4799 217.178 13.7903L215.559 13.4395C214.335 15.924 212.848 18.2703 211.124 20.4383" fill="white"/>
<path d="M225.68 4.1651H230.708L230.295 6.7829H225.257L225.68 4.1651ZM222.981 12.7832H229.188C229.233 12.7821 229.277 12.7913 229.318 12.81C229.359 12.8287 229.395 12.8564 229.424 12.891C229.452 12.9257 229.473 12.9664 229.483 13.01C229.494 13.0536 229.494 13.0991 229.485 13.143L229.143 15.1041C229.123 15.2027 229.07 15.2918 228.994 15.357C228.917 15.4223 228.821 15.4599 228.72 15.4639H222.504L222.981 12.7832ZM229.755 8.50112C230.259 10.7681 233.083 13.6108 234.109 14.4924L235.377 13.116C233.843 11.848 232.588 10.2769 231.689 8.50112H235.89L236.196 6.7829H231.959L232.427 4.1651H235.962L236.259 2.44688H232.723L233.155 0H231.446L231.014 2.43789H225.977L226.408 0H224.699L224.267 2.43789H221.11L220.804 4.1561H223.997L223.539 6.77391H219.499L219.203 8.49212H223.098C221.561 10.2818 219.769 11.8366 217.781 13.107L218.564 14.4834C219.511 13.8522 220.424 13.1705 221.299 12.4413L219.994 19.8449C219.936 20.0978 219.937 20.3606 219.997 20.6131C220.056 20.8656 220.173 21.101 220.339 21.301C220.504 21.501 220.713 21.6603 220.95 21.7666C221.186 21.8729 221.444 21.9234 221.703 21.914H229.8C230.38 21.8947 230.937 21.6798 231.379 21.3042C231.822 20.9285 232.124 20.4143 232.238 19.8449L232.642 17.551H230.933L230.528 19.8449C230.508 19.9436 230.456 20.0326 230.379 20.0979C230.303 20.1631 230.206 20.2008 230.106 20.2048H222.009C221.964 20.2058 221.92 20.1966 221.879 20.1779C221.838 20.1593 221.802 20.1316 221.774 20.0969C221.745 20.0623 221.725 20.0216 221.714 19.9779C221.703 19.9343 221.703 19.8888 221.712 19.8449L222.189 17.1462H228.396C228.977 17.1269 229.533 16.912 229.976 16.5364C230.418 16.1607 230.721 15.6465 230.834 15.0771L231.185 13.116C231.243 12.8632 231.242 12.6003 231.183 12.3478C231.123 12.0954 231.006 11.86 230.841 11.66C230.676 11.4599 230.466 11.3006 230.23 11.1943C229.993 11.088 229.735 11.0376 229.476 11.047H222.864C223.698 10.2902 224.428 9.42484 225.032 8.47413L229.755 8.50112Z" fill="white"/>
</svg>
