<svg width="511" height="102" viewBox="0 0 511 102" fill="none" xmlns="http://www.w3.org/2000/svg">
<path d="M132.431 35.1797H139.418V49.1139H154.985V35.1797H161.977V69.9654H154.985V54.6866H139.418V69.9654H132.431V35.1797V35.1797Z" fill="white"/>
<path d="M176.814 68.9794C174.627 67.9684 172.949 66.5143 171.769 64.6069C170.594 62.6995 170.006 60.4236 170.006 57.7842V35.1797H176.923V56.7981C176.923 59.3778 177.561 61.3449 178.845 62.6945C180.13 64.0491 182.023 64.7264 184.538 64.7264C189.503 64.7264 191.983 62.0322 191.983 56.6537V35.1797H198.925V57.7394C198.925 60.4137 198.342 62.7095 197.182 64.6218C196.022 66.5342 194.363 67.9933 192.207 68.9943C190.051 69.9953 187.496 70.4933 184.533 70.4933C181.57 70.4933 178.995 69.9953 176.809 68.9844L176.814 68.9794Z" fill="white"/>
<path d="M225.901 61.1444H212.594L209.447 69.9591H202.41L215.911 35.1484H222.784L236.568 69.9591H229.098L225.906 61.1444H225.901ZM214.517 55.7659H223.959L220.617 46.5677C220.139 45.3028 219.666 43.8187 219.198 42.1255C218.81 43.5349 218.356 45.009 217.828 46.5478L214.517 55.7709V55.7659Z" fill="white"/>
<path d="M236.041 35.1808H243.442L249.014 56.1269C249.527 57.9994 249.936 59.9217 250.239 61.8888C250.767 59.5482 251.265 57.596 251.729 56.0273L257.665 35.1758H264.941L271.211 56.1717C271.898 58.4924 272.356 60.3998 272.58 61.8888C272.869 60.355 273.302 58.5273 273.875 56.4108L279.278 35.1758H286.27L275.962 69.9615H268.73L262.869 50.2654C262.471 48.9706 262.142 47.7654 261.883 46.6648C261.624 45.5592 261.38 44.3242 261.136 42.9646C260.877 44.2943 260.623 45.4945 260.364 46.5702C260.105 47.6459 259.786 48.8461 259.403 50.1757L253.686 69.9715H246.504L236.026 35.1808H236.041Z" fill="white"/>
<path d="M291.101 35.1797H312.027L311.449 40.8271H298.093V49.4526H310.657V54.7165H298.093V64.2782H312.196L311.693 69.9704H291.106V35.1847L291.101 35.1797Z" fill="white"/>
<path d="M318.844 35.1797H325.831V69.9654H318.844V35.1797V35.1797Z" fill="white"/>
<path d="M355.766 68.4104C353.137 67.0558 351.125 65.0737 349.726 62.4642C348.326 59.8546 347.624 56.7072 347.624 53.022C347.624 49.3367 348.361 45.9303 349.835 43.1714C351.309 40.4174 353.366 38.3158 356.01 36.8666C358.655 35.4174 361.678 34.6953 365.089 34.6953C366.977 34.6953 368.794 34.9095 370.532 35.3427C372.27 35.776 373.859 36.3736 375.303 37.1455L373.695 42.3098C370.861 40.8557 368.102 40.1236 365.433 40.1236C363.172 40.1236 361.249 40.6365 359.656 41.6574C358.062 42.6833 356.857 44.1375 356.04 46.0299C355.224 47.9224 354.815 50.1435 354.815 52.7082C354.815 55.1285 355.204 57.255 355.966 59.0976C356.738 60.9403 357.943 62.3845 359.581 63.4353C361.225 64.4811 363.306 65.009 365.841 65.009C368.535 65.009 371.344 64.3516 374.272 63.0418L375.761 68.1116C374.287 68.8486 372.694 69.4213 370.981 69.8297C369.267 70.238 367.33 70.4422 365.169 70.4422C361.538 70.4422 358.406 69.7649 355.776 68.4104H355.766Z" fill="white"/>
<path d="M380.727 35.1797H387.714V64.079H401.648L401.145 69.9654H380.727V35.1797V35.1797Z" fill="white"/>
<path d="M410.931 68.251C408.346 66.7968 406.369 64.75 405.01 62.1156C403.645 59.4811 402.968 56.4184 402.968 52.9273C402.968 49.257 403.695 46.0548 405.154 43.3058C406.608 40.5568 408.705 38.4403 411.439 36.9413C414.168 35.4423 417.4 34.6953 421.135 34.6953C424.87 34.6953 427.778 35.4224 430.348 36.8666C432.918 38.3158 434.88 40.3576 436.235 42.9821C437.589 45.6066 438.266 48.6544 438.266 52.1106C438.266 55.8257 437.529 59.0678 436.055 61.8267C434.581 64.5906 432.48 66.7121 429.746 68.2012C427.017 69.6902 423.814 70.4372 420.149 70.4372C416.484 70.4372 413.521 69.7102 410.936 68.251H410.931ZM426.255 63.4253C427.813 62.3546 428.989 60.8755 429.775 58.993C430.557 57.1106 430.951 54.9592 430.951 52.5439C430.951 50.1285 430.607 48.0618 429.92 46.1993C429.233 44.3417 428.132 42.8576 426.618 41.757C425.104 40.6515 423.162 40.0987 420.791 40.0987C418.421 40.0987 416.588 40.6565 415.005 41.7819C413.421 42.9074 412.231 44.4064 411.439 46.2839C410.647 48.1664 410.249 50.2381 410.249 52.4941C410.249 54.8795 410.622 57.0209 411.379 58.9084C412.136 60.7958 413.277 62.2948 414.815 63.3855C416.349 64.4811 418.252 65.0339 420.508 65.0339C422.778 65.0339 424.696 64.496 426.26 63.4253H426.255Z" fill="white"/>
<path d="M450.956 68.9794C448.77 67.9684 447.092 66.5143 445.911 64.6069C444.736 62.6995 444.148 60.4236 444.148 57.7842V35.1797H451.066V56.7981C451.066 59.3778 451.703 61.3449 452.988 62.6945C454.273 64.0491 456.165 64.7264 458.68 64.7264C463.645 64.7264 466.125 62.0322 466.125 56.6537V35.1797H473.068V57.7394C473.068 60.4137 472.485 62.7095 471.325 64.6218C470.164 66.5342 468.506 67.9933 466.355 68.9943C464.198 69.9953 461.643 70.4933 458.68 70.4933C455.717 70.4933 453.147 69.9953 450.956 68.9844V68.9794Z" fill="white"/>
<path d="M481.09 35.1788H493.127C496.877 35.1788 500.084 35.7963 502.748 37.0314C505.417 38.2664 507.454 40.0941 508.874 42.5194C510.293 44.9447 511 47.9079 511 51.3939C511 54.8799 510.258 58.1568 508.779 60.9656C507.3 63.7743 505.163 65.9805 502.38 67.5691C499.596 69.1628 496.319 69.9596 492.554 69.9596H481.095V35.1738L481.09 35.1788ZM492.166 64.5562C494.68 64.5562 496.812 63.9984 498.555 62.8879C500.303 61.7724 501.608 60.2435 502.469 58.2963C503.336 56.354 503.764 54.123 503.764 51.6031C503.764 47.9676 502.833 45.2236 500.965 43.3611C499.098 41.5035 496.324 40.5722 492.644 40.5722H488.077V64.5463H492.161L492.166 64.5562Z" fill="white"/>
<path d="M11.2557 91.4858H3.56652V84.7129H0.160156V101.491H3.56652V94.678H11.2557V101.491H14.6621V84.7129H11.2557V91.4858Z" fill="white"/>
<path d="M30.4346 94.3145C30.4346 97.0435 29.08 98.5027 26.6198 98.5027C24.1597 98.5027 22.7852 97.0037 22.7852 94.1999V84.7228H19.3838V94.3194C19.3838 99.0405 22.0083 101.745 26.58 101.745C31.1517 101.745 33.8459 98.9858 33.8459 94.18V84.7129H30.4445V94.3145H30.4346Z" fill="white"/>
<path d="M69.7867 96.2508L65.9719 84.707H63.193L59.3833 96.2508L55.6781 84.722H52.0576L57.9042 101.49H60.7229L64.5377 90.4739L68.3524 101.49H71.196L77.0277 84.722H73.4968L69.7867 96.2508Z" fill="white"/>
<path d="M83.133 94.2694H89.3233V91.2167H83.133V87.7804H92.122V84.7227H79.7715V101.481H92.4458V98.4228H83.133V94.2694Z" fill="white"/>
<path d="M99.8664 84.7129H96.5049V101.471H99.8664V84.7129Z" fill="white"/>
<path d="M48.2476 97.9897L49.7516 101.481H53.3223L46.0016 84.8075L45.9369 84.7129H42.9588L35.5684 101.486H39.0444L40.4687 98.2387L40.5683 97.9947H48.2476V97.9897ZM44.398 88.9609L46.8233 94.5784H46.8133L46.9777 94.9668H41.8333L41.9976 94.5784H41.9926L44.398 88.9609Z" fill="white"/>
<path d="M7.17728 29.7192C7.50597 35.9741 12.237 39.6793 12.237 39.6793C19.8515 47.0697 38.2878 56.3974 42.5706 58.5139C42.6304 58.5338 42.8495 58.6085 42.984 58.4442C42.984 58.4442 43.1632 58.3047 43.0686 58.0707C31.3356 32.5478 15.2848 13.1953 15.2848 13.1953C15.2848 13.1953 6.55478 21.4473 7.17728 29.7142" fill="white"/>
<path d="M9.04404 65.5473C12.3707 71.4586 17.9783 76.0453 23.8149 74.6359C27.8488 73.6349 36.9722 67.2953 39.9802 65.1489H39.9702C40.2043 64.9347 40.1196 64.7604 40.1196 64.7604C40.0449 64.4865 39.7262 64.4865 39.7262 64.4865V64.4766L9.03906 65.5423L9.04404 65.5473Z" fill="white"/>
<path d="M1.70382 51.8217C5.0305 58.8336 11.39 60.9551 11.39 60.9551C14.3233 62.1553 17.2615 62.24 17.2615 62.24C17.7197 62.3246 35.5135 62.2499 40.2794 62.225C40.4786 62.225 40.5931 62.0159 40.5931 62.0159C40.7425 61.7768 40.4786 61.5627 40.4786 61.5627C27.0025 52.504 0.877128 38.5996 0.877128 38.5996C-1.49836 45.9253 1.70382 51.8217 1.70382 51.8217Z" fill="white"/>
<path d="M37.6844 0.936252C29.5619 3.02788 27.6396 10.3735 27.6396 10.3735C26.1556 14.995 27.6795 20.0697 27.6795 20.0697C30.3886 32.0567 43.7352 51.7479 46.6037 55.8863C46.8079 56.0855 46.9673 56.0158 46.9673 56.0158C47.276 55.9311 47.2561 55.6373 47.2561 55.6373H47.2611C51.6784 11.6583 42.6296 0 42.6296 0C41.295 0.114541 37.6894 0.931272 37.6894 0.931272" fill="white"/>
<path d="M52.5504 55.6572H52.5554C52.5903 55.9311 52.7895 55.9959 52.7895 55.9959C53.0883 56.1104 53.2377 55.8265 53.2377 55.8265C56.1809 51.5885 69.4478 32.0019 72.147 20.0647C72.147 20.0647 73.6111 14.2828 72.1968 10.3685C72.1968 10.3685 70.1898 2.91334 62.0524 0.941232C62.0524 0.941232 59.7068 0.348605 57.2217 0C57.2217 0 48.1281 11.6583 52.5454 55.6572" fill="white"/>
<path d="M60.0548 64.505C60.0548 64.505 59.7859 64.5398 59.7112 64.744C59.7112 64.744 59.6465 65.0179 59.8307 65.1574H59.8258C62.764 67.254 71.6684 73.4591 75.9612 74.6643C75.9612 74.6643 83.8944 77.3585 90.7818 65.5657L60.0548 64.5V64.51V64.505Z" fill="white"/>
<path d="M59.3774 61.54C59.3774 61.54 59.1334 61.7044 59.218 61.9882C59.218 61.9882 59.3425 62.2173 59.5368 62.2173C64.3624 62.2273 82.6443 62.2522 83.1074 62.1625C83.1074 62.1625 85.4729 62.0679 88.3913 60.9524C88.3913 60.9524 94.8902 58.8956 98.2717 51.5401C98.2717 51.5401 101.285 45.5391 98.954 38.5371C98.954 38.5371 72.8684 52.4763 59.3824 61.54" fill="white"/>
<path d="M56.8182 57.9581H56.8231C56.8231 57.9581 56.6837 58.2519 56.9078 58.4412C56.9078 58.4412 57.1219 58.6005 57.3211 58.471C61.7185 56.2997 80.0103 47.0318 87.59 39.6763C87.59 39.6763 92.3858 35.8366 92.6398 29.6763C93.1926 21.1205 84.5422 13.1973 84.5422 13.1973C84.5422 13.1973 68.5412 32.4851 56.8182 57.9581" fill="white"/>
</svg>
